<svg width="171" height="143" viewBox="0 0 171 143" fill="none" xmlns="http://www.w3.org/2000/svg">
<path d="M159 76.5C159 112.614 127.723 142 89 142C50.2774 142 19 112.614 19 76.5C19 40.386 50.2774 11 89 11C127.723 11 159 40.386 159 76.5Z" fill="#FDAA00" stroke="#475C59" stroke-width="2"/>
<g clip-path="url(#clip0)">
<path d="M75.5646 98.0841L74.8917 97.8225C74.1309 97.5256 73.8031 96.7847 74.1556 96.1596L111.931 29.1698C112.29 28.5327 113.218 28.2583 113.994 28.5604L116.884 29.6864C117.66 29.9885 117.983 30.7504 117.602 31.3799L77.6099 97.5062C77.2363 98.123 76.3254 98.381 75.5646 98.0841V98.0841Z" fill="#C1752F"/>
<path d="M78.6188 95.563L79.2294 95.9129C79.9188 96.3084 80.8701 96.1783 81.3644 95.6206L134.276 35.8518C134.779 35.2836 134.615 34.488 133.912 34.085L131.292 32.5822C130.589 32.1784 129.617 32.3227 129.133 32.9022L78.2324 93.8231C77.7573 94.3921 77.9294 95.1667 78.6188 95.563V95.563Z" fill="#C1752F"/>
<path d="M133.433 77.8258C133.433 86.7957 124.529 94.0669 113.546 94.0669C102.563 94.0669 93.6591 86.7957 93.6591 77.8258C93.6591 68.8559 102.563 61.5847 113.546 61.5847C124.529 61.5847 133.433 68.8559 133.433 77.8258Z" fill="#F3E8D7"/>
<path d="M113.546 61.5847C111.255 61.5847 109.058 61.9047 107.01 62.4864C114.782 64.695 120.362 70.7266 120.362 77.8258C120.362 84.925 114.782 90.9565 107.01 93.1652C109.058 93.7469 111.255 94.0669 113.546 94.0669C124.529 94.0669 133.433 86.7957 133.433 77.8258C133.433 68.8559 124.529 61.5847 113.546 61.5847Z" fill="#EADDCC"/>
<path d="M126.616 77.8258C126.616 83.7212 120.764 88.5004 113.546 88.5004C106.327 88.5004 100.475 83.7212 100.475 77.8258C100.475 71.9303 106.327 67.1512 113.546 67.1512C120.764 67.1512 126.616 71.9303 126.616 77.8258V77.8258Z" fill="#E5D8C6"/>
<path d="M113.546 67.1512C111.164 67.1512 108.934 67.6738 107.01 68.583C110.916 70.429 113.546 73.8758 113.546 77.8258C113.546 81.7765 110.916 85.2226 107.01 87.0686C108.934 87.9778 111.164 88.5004 113.546 88.5004C120.764 88.5004 126.616 83.7212 126.616 77.8258C126.616 71.9311 120.764 67.1512 113.546 67.1512V67.1512Z" fill="#D8C9B6"/>
<path d="M119.789 77.8258C119.789 80.6415 116.994 82.9249 113.546 82.9249C110.097 82.9249 107.302 80.6415 107.302 77.8258C107.302 75.01 110.097 72.7266 113.546 72.7266C116.994 72.7266 119.789 75.01 119.789 77.8258V77.8258Z" fill="#F3E8D7"/>
<path d="M91.2567 64.6203C91.2567 73.5902 82.3532 80.8614 71.3696 80.8614C60.387 80.8614 51.4825 73.5902 51.4825 64.6203C51.4825 55.6511 60.387 48.3792 71.3696 48.3792C82.3532 48.3792 91.2567 55.6511 91.2567 64.6203Z" fill="#F3E8D7"/>
<path d="M71.3696 48.3792C68.9737 48.3792 66.6757 48.7261 64.548 49.3601C72.1716 51.6338 77.6135 57.6078 77.6135 64.6203C77.6135 71.6327 72.1707 77.6074 64.548 79.8804C66.6757 80.5152 68.9737 80.8614 71.3696 80.8614C82.3532 80.8614 91.2567 73.5902 91.2567 64.6203C91.2567 55.6503 82.3532 48.3792 71.3696 48.3792Z" fill="#EADDCC"/>
<path d="M84.4406 64.6203C84.4406 70.5157 78.5886 75.2949 71.3696 75.2949C64.1516 75.2949 58.2996 70.5157 58.2996 64.6203C58.2996 58.7255 64.1516 53.9464 71.3696 53.9464C78.5886 53.9464 84.4406 58.7255 84.4406 64.6203Z" fill="#E5D8C6"/>
<path d="M71.3696 53.9464C68.9124 53.9464 66.6135 54.5012 64.6497 55.4642C68.4537 57.3311 70.9998 60.7323 70.9998 64.6203C70.9998 68.5089 68.4537 71.9101 64.6497 73.7763C66.6135 74.7401 68.9114 75.2949 71.3696 75.2949C78.5886 75.2949 84.4406 70.5157 84.4406 64.6203C84.4406 58.7248 78.5886 53.9464 71.3696 53.9464Z" fill="#D8C9B6"/>
<path d="M77.6135 64.6202C77.6135 67.4368 74.8184 69.7194 71.3696 69.7194C67.9218 69.7194 65.1266 67.4368 65.1266 64.6202C65.1266 61.8045 67.9218 59.5218 71.3696 59.5218C74.8184 59.5218 77.6135 61.8045 77.6135 64.6202Z" fill="#F3E8D7"/>
<path d="M106.034 77.8258C106.034 86.7957 97.1307 94.0669 86.1472 94.0669C75.1645 94.0669 66.2601 86.7957 66.2601 77.8258C66.2601 68.8559 75.1645 61.5847 86.1472 61.5847C97.1307 61.5847 106.034 68.8559 106.034 77.8258Z" fill="#F3E8D7"/>
<path d="M86.1472 61.5847C83.7512 61.5847 81.4532 61.9309 79.3256 62.5656C86.9492 64.8393 92.3911 70.8133 92.3911 77.8258C92.3911 84.8383 86.9492 90.8122 79.3256 93.0859C81.4532 93.72 83.7512 94.0669 86.1472 94.0669C97.1307 94.0669 106.034 86.7957 106.034 77.8258C106.034 68.8559 97.1307 61.5847 86.1472 61.5847V61.5847Z" fill="#EADDCC"/>
<path d="M99.2181 77.8258C99.2181 83.7212 93.3661 88.5004 86.1472 88.5004C78.9291 88.5004 73.0771 83.7212 73.0771 77.8258C73.0771 71.9303 78.9291 67.1512 86.1472 67.1512C93.3661 67.1512 99.2181 71.9303 99.2181 77.8258V77.8258Z" fill="#E5D8C6"/>
<path d="M86.1472 67.1512C83.6597 67.1512 81.3342 67.7194 79.3539 68.7048C83.1186 70.5785 85.6317 73.9625 85.6317 77.8258C85.6317 81.689 83.1186 85.073 79.3539 86.9467C81.3342 87.9322 83.6597 88.5004 86.1472 88.5004C93.3661 88.5004 99.2181 83.7212 99.2181 77.8258C99.2181 71.9311 93.3661 67.1512 86.1472 67.1512V67.1512Z" fill="#D8C9B6"/>
<path d="M92.3911 77.8258C92.3911 80.6415 89.5959 82.9249 86.1472 82.9249C82.6993 82.9249 79.9042 80.6415 79.9042 77.8258C79.9042 75.01 82.6993 72.7266 86.1472 72.7266C89.5959 72.7266 92.3911 75.01 92.3911 77.8258Z" fill="#F3E8D7"/>
<path d="M76.3638 77.8258C76.3638 86.7957 67.4594 94.0669 56.4767 94.0669C45.4932 94.0669 36.5897 86.7957 36.5897 77.8258C36.5897 68.8559 45.4932 61.5847 56.4767 61.5847C67.4594 61.5847 76.3638 68.8559 76.3638 77.8258Z" fill="#F3E8D7"/>
<path d="M56.4767 61.5847C54.1028 61.5847 51.8277 61.9256 49.7174 62.5484C57.373 64.8079 62.8442 70.7946 62.8442 77.8258C62.8442 84.857 57.3721 90.8429 49.7174 93.1031C51.8277 93.7259 54.1028 94.0669 56.4767 94.0669C67.4594 94.0669 76.3638 86.7957 76.3638 77.8258C76.3638 68.8559 67.4594 61.5847 56.4767 61.5847V61.5847Z" fill="#EADDCC"/>
<path d="M69.5468 77.8258C69.5468 83.7212 63.6948 88.5004 56.4767 88.5004C49.2578 88.5004 43.4058 83.7212 43.4058 77.8258C43.4058 71.9303 49.2578 67.1512 56.4767 67.1512C63.6948 67.1512 69.5468 71.9303 69.5468 77.8258V77.8258Z" fill="#E5D8C6"/>
<path d="M56.4767 67.1512C53.9883 67.1512 51.6629 67.7194 49.6835 68.7048C53.4473 70.5785 55.9604 73.9625 55.9604 77.8258C55.9604 81.689 53.4473 85.073 49.6835 86.9467C51.6629 87.9322 53.9883 88.5004 56.4767 88.5004C63.6948 88.5004 69.5468 83.7212 69.5468 77.8258C69.5468 71.9311 63.6948 67.1512 56.4767 67.1512V67.1512Z" fill="#D8C9B6"/>
<path d="M62.7197 77.8258C62.7197 80.6415 59.9246 82.9249 56.4767 82.9249C53.028 82.9249 50.2328 80.6415 50.2328 77.8258C50.2328 75.01 53.028 72.7266 56.4767 72.7266C59.9246 72.7266 62.7197 75.01 62.7197 77.8258Z" fill="#F3E8D7"/>
<path d="M31.5854 77.8258C30.9482 77.8258 30.4501 78.2751 30.5133 78.7933C31.6193 87.8305 36.456 104.448 56.42 114.838C56.5747 114.919 56.7432 114.98 56.9189 115.023V120.44C56.9189 122.165 58.631 123.564 60.744 123.564H109.298C111.41 123.564 113.123 122.165 113.123 120.44V115.017C113.291 114.974 113.453 114.916 113.602 114.838C133.565 104.448 138.402 87.8305 139.508 78.7933C139.572 78.2744 139.074 77.8258 138.436 77.8258H31.5854Z" fill="#33D8DD"/>
<path d="M112.514 115.095H57.5076C57.3071 115.095 57.1085 115.07 56.9189 115.024V120.441C56.9189 122.165 58.631 123.564 60.744 123.564H109.298C111.411 123.564 113.123 122.165 113.123 120.441V115.018C112.927 115.068 112.722 115.095 112.514 115.095Z" fill="#2ECCCC"/>
<path d="M112.514 115.095H99.3985V123.564H109.298C111.411 123.564 113.123 122.165 113.123 120.441V115.018C112.927 115.068 112.722 115.095 112.514 115.095Z" fill="#23B5B1"/>
<path d="M57.5076 115.095C57.3071 115.095 57.1085 115.07 56.9189 115.024V115.095H57.5076Z" fill="#25B9C0"/>
<path d="M57.2192 121.656C57.0737 121.376 56.9775 121.075 56.9382 120.76C56.9775 121.075 57.0737 121.376 57.2192 121.656Z" fill="#25B9C0"/>
<path d="M138.437 77.8258H125.485C125.255 98.2075 101.108 114.64 99.3985 115.095H112.514C112.722 115.095 112.927 115.068 113.123 115.017C113.292 114.974 113.453 114.916 113.602 114.838C133.566 104.448 138.403 87.8305 139.509 78.7933C139.572 78.2751 139.075 77.8258 138.437 77.8258V77.8258Z" fill="#2CC6C2"/>
<path d="M140.54 77.1514C140.002 76.6676 139.236 76.3895 138.437 76.3895H135.121C134.792 73.0115 133.302 69.8286 130.762 67.11C130.172 66.4797 129.07 66.3586 128.297 66.8394C127.525 67.3209 127.377 68.2218 127.967 68.8521C130.035 71.0653 131.268 73.647 131.588 76.3895H128.267C127.393 70.3871 121.127 65.7156 113.545 65.7156C110.212 65.7156 106.978 66.645 104.382 68.3093C103.786 67.5504 103.12 66.8319 102.393 66.1582C102.932 65.8143 103.492 65.4995 104.069 65.2102C104.075 65.2064 104.082 65.2042 104.089 65.2012C104.796 64.8468 105.524 64.535 106.271 64.2659C106.343 64.2404 106.415 64.2158 106.486 64.1911C106.674 64.1253 106.864 64.0632 107.053 64.0034C107.177 63.9645 107.3 63.9264 107.425 63.8905C107.52 63.8621 107.615 63.8337 107.711 63.8068C107.906 63.7529 108.101 63.7021 108.297 63.6543C108.385 63.6326 108.472 63.6109 108.561 63.5907C108.763 63.5436 108.965 63.4995 109.168 63.4576C109.258 63.4397 109.348 63.4232 109.438 63.406C109.592 63.3769 109.747 63.3492 109.901 63.3238C110.045 63.2999 110.189 63.2774 110.334 63.2565C110.464 63.237 110.596 63.2191 110.729 63.2019C110.851 63.1862 110.973 63.1713 111.095 63.1578C111.902 63.0681 112.72 63.021 113.546 63.021C116.613 63.021 119.644 63.6572 122.309 64.8618C123.158 65.2453 124.228 64.9941 124.698 64.3002C125.168 63.6064 124.861 62.7331 124.011 62.3488C121.221 61.0882 118.097 60.348 114.905 60.1843L135.7 36.6929C136.221 36.1045 136.427 35.386 136.281 34.6689C136.133 33.9527 135.651 33.3276 134.924 32.9097C134.923 32.9097 134.923 32.9097 134.923 32.9097L132.303 31.4068C131.575 30.9889 130.69 30.8304 129.816 30.9605C128.941 31.0906 128.183 31.4928 127.681 32.0932L101.933 62.9103C101.21 63.2864 100.516 63.7021 99.8471 64.15C99.8224 64.1343 99.7977 64.1178 99.7729 64.1014L119.178 32.0154C119.572 31.3642 119.629 30.627 119.338 29.9399C119.047 29.2535 118.444 28.7032 117.641 28.3899L114.752 27.2647C113.948 26.9514 113.045 26.9148 112.209 27.1622C111.372 27.4097 110.705 27.9092 110.334 28.5694L92.3883 60.3944C91.3208 56.8511 88.9184 53.6383 85.4999 51.2301C81.5768 48.4666 76.5579 46.9436 71.3705 46.9436C66.1877 46.9436 61.1734 48.4636 57.2513 51.2226C53.6642 53.746 51.1951 57.1569 50.2109 60.905C41.8603 62.9716 35.6284 69.0555 34.9033 76.3902H31.5854C30.7861 76.3902 30.0198 76.6676 29.4833 77.1521C28.9468 77.6359 28.685 78.2864 28.7637 78.9361C29.8917 88.1475 34.8236 105.153 55.1602 115.884V120.441C55.1602 122.954 57.6651 125 60.744 125H109.298C112.377 125 114.881 122.954 114.881 120.441V115.874C125.049 110.505 132.49 102.995 137.002 93.5487C137.565 92.3697 138.085 91.1509 138.548 89.9262C138.921 88.9393 139.265 87.9254 139.571 86.9146C140.362 84.3029 140.93 81.6188 141.257 78.9361C141.337 78.2856 141.075 77.6359 140.54 77.1514V77.1514ZM130.461 33.86L132.722 35.1564L110.435 60.3308C110.334 60.3428 110.232 60.3592 110.13 60.3727C109.977 60.3921 109.825 60.4131 109.673 60.4355C109.538 60.4557 109.404 60.4751 109.271 60.4975C109.033 60.5357 108.796 60.5776 108.561 60.6232C108.448 60.6448 108.336 60.668 108.223 60.6919C108.151 60.7069 108.079 60.7204 108.006 60.7361L130.461 33.86ZM113.546 68.5874C119.186 68.5874 123.873 71.9752 124.721 76.3895H121.351C120.547 73.475 117.354 71.2911 113.546 71.2911C110.984 71.2911 108.7 72.281 107.234 73.816C106.951 72.8216 106.561 71.8473 106.064 70.8993C108.12 69.4204 110.789 68.5874 113.546 68.5874V68.5874ZM117.671 76.3895H109.42C110.106 75.0818 111.696 74.1621 113.545 74.1621C115.395 74.1629 116.987 75.0818 117.671 76.3895V76.3895ZM113.436 29.9339L115.928 30.9044L96.8433 62.4617C96.3837 62.2479 95.9131 62.0467 95.4324 61.8598L113.436 29.9339ZM92.5549 63.9787C92.695 64.0221 92.8342 64.0662 92.9733 64.1126C93.0475 64.1373 93.1216 64.1642 93.1958 64.1896C93.4183 64.2666 93.638 64.3466 93.8559 64.4303C93.9529 64.4677 94.0491 64.5051 94.1452 64.5432C94.2578 64.5889 94.3695 64.6352 94.4803 64.6823C94.5975 64.7324 94.7137 64.7833 94.8291 64.8348C94.9518 64.8894 95.0735 64.9455 95.1953 65.0023C95.3482 65.0748 95.5002 65.1481 95.6503 65.2236C95.7345 65.2663 95.8188 65.3104 95.9021 65.3537C96.0312 65.421 96.1584 65.4906 96.2848 65.5601C96.3589 65.6012 96.4331 65.6408 96.5063 65.6827C99.1687 67.202 101.311 69.2895 102.667 71.7285C102.676 71.7456 102.685 71.7621 102.694 71.7793C103.478 73.2036 103.994 74.7468 104.189 76.3656C104.189 76.3738 104.19 76.3813 104.191 76.3895H100.869C99.9963 70.3871 93.7295 65.7149 86.1481 65.7149C82.0703 65.7149 78.2635 67.0592 75.4996 69.3979C74.9649 68.5949 74.3561 67.8218 73.6694 67.0891C77.0248 64.4894 81.4944 63.0202 86.1481 63.0202C88.403 63.0202 90.5618 63.3619 92.5549 63.9787V63.9787ZM86.1471 71.2911C82.3395 71.2911 79.1461 73.4758 78.3423 76.3902H78.0502C78.0493 76.379 78.0475 76.3686 78.0466 76.3581C78.0283 76.1779 78.0063 75.9985 77.9816 75.8198C77.9742 75.7704 77.9678 75.7203 77.9605 75.6702C77.9303 75.4736 77.8973 75.2777 77.8607 75.0825C77.8525 75.0392 77.8424 74.9958 77.8342 74.9524C77.8049 74.8066 77.7728 74.6616 77.7389 74.5173C77.738 74.5106 77.7362 74.5031 77.7344 74.4964C77.7298 74.4784 77.7261 74.4605 77.7215 74.4425C77.7115 74.4007 77.7023 74.358 77.6923 74.3162C77.6437 74.1225 77.5915 73.9311 77.5366 73.7405C77.522 73.6896 77.5064 73.6395 77.4908 73.5887C77.4597 73.4855 77.4277 73.3831 77.3947 73.2806C77.3938 73.2784 77.3929 73.2754 77.392 73.2732C77.3682 73.1991 77.3434 73.1259 77.3187 73.0518C77.3105 73.0272 77.3022 73.0025 77.2931 72.9771C77.2583 72.8784 77.2217 72.7789 77.1851 72.681C77.1832 72.6765 77.1814 72.6728 77.1805 72.6683C77.1503 72.5883 77.1191 72.509 77.088 72.429C77.0761 72.3976 77.0651 72.3662 77.0532 72.3348C79.1855 69.9766 82.5272 68.5874 86.1471 68.5874C91.7868 68.5874 96.4752 71.9759 97.3221 76.3902H93.952C93.1491 73.475 89.9557 71.2911 86.1471 71.2911V71.2911ZM90.2734 76.3895H82.0218C82.7075 75.0818 84.2978 74.1621 86.1481 74.1621C87.9974 74.1629 89.5877 75.0818 90.2734 76.3895ZM71.3696 60.9574C72.9077 60.9574 74.3094 61.6071 75.1224 62.6202C73.7564 63.2804 72.4765 64.0647 71.3074 64.9634C70.1749 64.0916 68.927 63.3178 67.5848 62.6598C68.3923 61.6236 69.8068 60.9574 71.3696 60.9574ZM64.4208 61.3821C63.3853 61.0471 62.3105 60.7764 61.2036 60.5746C63.0731 57.453 67.0117 55.3819 71.3696 55.3819C75.7193 55.3819 79.6533 57.4463 81.5265 60.5589C80.4251 60.7562 79.3457 61.0224 78.2992 61.3559C76.893 59.373 74.2654 58.0855 71.3696 58.0855C68.4537 58.0855 65.8197 59.3835 64.4208 61.3821ZM59.5465 53.3983C62.8305 51.088 67.0291 49.8154 71.3705 49.8154C75.7156 49.8154 79.9179 51.0902 83.2028 53.4051C85.8047 55.2376 87.7026 57.6265 88.6987 60.2725C87.8619 60.1917 87.0105 60.1491 86.1481 60.1491C85.8166 60.1491 85.4861 60.1566 85.1565 60.1686C82.9437 55.6062 77.4689 52.5108 71.3705 52.5108C65.2685 52.5108 59.7946 55.6077 57.5818 60.1716C57.2156 60.1566 56.8475 60.1491 56.4767 60.1491C55.6546 60.1491 54.8444 60.188 54.046 60.2613C55.0449 57.6167 56.9446 55.2294 59.5465 53.3983ZM56.4767 63.0202C63.6517 63.0202 69.8672 66.4431 72.8033 71.3942C72.8271 71.4354 72.85 71.4772 72.8729 71.5184C72.9681 71.6821 73.0597 71.8466 73.1476 72.0126C73.1906 72.0963 73.2309 72.18 73.273 72.2638C73.3362 72.3901 73.3984 72.5173 73.457 72.6451C73.5055 72.7513 73.5504 72.8574 73.5962 72.9644C73.6429 73.0728 73.6887 73.1812 73.7317 73.2911C73.7793 73.41 73.8223 73.5296 73.8663 73.6492C73.902 73.7494 73.9377 73.8504 73.9716 73.9521C74.0137 74.0777 74.053 74.204 74.0906 74.3304C74.1199 74.4298 74.1482 74.53 74.1757 74.6309C74.2096 74.758 74.2425 74.8852 74.2728 75.0138C74.2975 75.1184 74.3204 75.2231 74.3423 75.3285C74.368 75.4526 74.3936 75.5775 74.4156 75.7024C74.4366 75.819 74.4531 75.9364 74.4705 76.0538C74.487 76.1652 74.5044 76.2773 74.5181 76.3902H71.1975C70.325 70.3871 64.0582 65.7156 56.4767 65.7156C48.8953 65.7156 42.6285 70.3871 41.756 76.3902H38.4344C39.3216 68.8977 47.0734 63.0202 56.4767 63.0202V63.0202ZM56.4767 71.2911C52.6681 71.2911 49.4748 73.4758 48.6719 76.3902H45.3018C46.1487 71.9759 50.8371 68.5874 56.4767 68.5874C62.1155 68.5874 66.8039 71.9759 67.6517 76.3902H64.2807C63.4778 73.475 60.2844 71.2911 56.4767 71.2911V71.2911ZM60.6021 76.3895H52.3505C53.0362 75.0818 54.6265 74.1621 56.4767 74.1621C58.3261 74.1621 59.9173 75.0818 60.6021 76.3895ZM136.158 86.2245C135.868 87.1837 135.542 88.1438 135.188 89.0791C134.751 90.238 134.258 91.3909 133.726 92.505C129.442 101.475 122.354 108.581 112.66 113.626C112.658 113.627 112.64 113.637 112.599 113.646C112.567 113.655 112.537 113.659 112.514 113.659H70.8295C69.8581 113.659 69.0707 114.301 69.0707 115.095C69.0707 115.888 69.8581 116.531 70.8295 116.531H111.365V120.44C111.365 121.371 110.438 122.128 109.298 122.128H60.744C59.6042 122.128 58.6768 121.371 58.6768 120.44V116.531H62.6483C63.6188 116.531 64.4061 115.888 64.4061 115.095C64.4061 114.301 63.6188 113.659 62.6483 113.659H57.5076C57.4829 113.659 57.4545 113.655 57.4243 113.648C57.3914 113.64 57.3721 113.631 57.3648 113.627C38.4592 103.788 33.5547 88.1273 32.3425 79.2613H137.679C137.36 81.6046 136.848 83.944 136.158 86.2245V86.2245Z" fill="black"/>
</g>
<defs>
<clipPath id="clip0">
<rect width="120" height="98" fill="white" transform="translate(25 27)"/>
</clipPath>
</defs>
</svg>
