<svg width="142" height="139" viewBox="0 0 142 139" fill="none" xmlns="http://www.w3.org/2000/svg">
<ellipse cx="71" cy="69.5" rx="71" ry="69.5" fill="#B5C2BF"/>
<g clip-path="url(#clip0)">
<path d="M115.432 71.9634C115.002 71.5586 114.389 71.3259 113.749 71.3259H111.096C110.834 68.4994 109.642 65.8362 107.609 63.5614C107.138 63.0341 106.256 62.9327 105.638 63.335C105.02 63.7379 104.902 64.4917 105.373 65.0191C107.028 66.8709 108.014 69.0312 108.27 71.3259H105.614C104.915 66.3035 99.9014 62.3947 93.8362 62.3947C91.1694 62.3947 88.5825 63.1723 86.5054 64.5649C86.0286 63.9299 85.4961 63.3287 84.9146 62.765C85.3452 62.4773 85.7935 62.2139 86.2549 61.9718C86.26 61.9686 86.2659 61.9668 86.271 61.9643C86.8364 61.6677 87.4194 61.4068 88.0171 61.1816C88.0742 61.1604 88.1321 61.1397 88.1892 61.1191C88.3394 61.064 88.491 61.0121 88.6426 60.962C88.7415 60.9295 88.8403 60.8976 88.94 60.8676C89.0161 60.8438 89.0923 60.82 89.1692 60.7975C89.3245 60.7525 89.4812 60.7099 89.638 60.6699C89.7083 60.6517 89.7778 60.6336 89.8489 60.6167C90.01 60.5773 90.1719 60.5404 90.3345 60.5053C90.4063 60.4903 90.478 60.4766 90.5505 60.4622C90.6736 60.4378 90.7974 60.4146 90.9212 60.3934C91.0361 60.3733 91.1511 60.3546 91.2669 60.3371C91.3716 60.3208 91.4771 60.3058 91.5833 60.2914C91.6807 60.2782 91.7781 60.2657 91.8762 60.2545C92.5215 60.1794 93.1763 60.14 93.8369 60.14C96.2905 60.14 98.7149 60.6724 100.847 61.6802C101.527 62.0012 102.382 61.791 102.759 61.2104C103.134 60.6298 102.889 59.8991 102.209 59.5776C99.9768 58.5228 97.4778 57.9034 94.9238 57.7664L111.56 38.1104C111.977 37.618 112.142 37.0168 112.024 36.4169C111.907 35.8175 111.521 35.2945 110.939 34.9448C110.938 34.9448 110.938 34.9448 110.938 34.9448L108.842 33.6873C108.26 33.3376 107.552 33.205 106.853 33.3138C106.153 33.4227 105.546 33.7593 105.145 34.2616L84.5462 60.0474C83.9683 60.3621 83.4131 60.7099 82.8777 61.0847C82.8579 61.0715 82.8381 61.0578 82.8184 61.044L98.3428 34.1966C98.6577 33.6517 98.7031 33.0348 98.4702 32.4599C98.2373 31.8856 97.7554 31.4251 97.113 31.163L94.8015 30.2214C94.1585 29.9593 93.4363 29.9287 92.7669 30.1357C92.0974 30.3428 91.5642 30.7607 91.2669 31.3131L76.9107 57.9422C76.0567 54.9775 74.1348 52.2892 71.3999 50.2741C68.2615 47.9619 64.2464 46.6875 60.0965 46.6875C55.9502 46.6875 51.9387 47.9594 48.801 50.2679C45.9314 52.3793 43.9561 55.2333 43.1687 58.3695C36.4883 60.0987 31.5027 65.1893 30.9226 71.3265H28.2683C27.6289 71.3265 27.0159 71.5586 26.5867 71.964C26.1575 72.3688 25.948 72.9131 26.011 73.4567C26.9133 81.1642 30.8589 95.3931 47.1282 104.372V108.185C47.1282 110.288 49.1321 112 51.5952 112H90.4385C92.9016 112 94.9048 110.288 94.9048 108.185V104.364C103.039 99.8712 108.992 93.5876 112.602 85.6836C113.052 84.697 113.468 83.6773 113.839 82.6526C114.137 81.8267 114.412 80.9784 114.657 80.1326C115.29 77.9473 115.744 75.7014 116.006 73.4567C116.07 72.9124 115.86 72.3688 115.432 71.9634V71.9634ZM107.369 35.74L109.178 36.8248L91.3482 57.889C91.2669 57.8991 91.1856 57.9128 91.1043 57.9241C90.9819 57.9403 90.8596 57.9579 90.738 57.9766C90.6304 57.9935 90.5234 58.0098 90.4165 58.0286C90.2261 58.0605 90.0371 58.0955 89.8489 58.1337C89.7588 58.1518 89.6687 58.1712 89.5786 58.1912C89.5208 58.2037 89.4629 58.215 89.405 58.2281L107.369 35.74ZM93.8369 64.7976C98.3486 64.7976 102.099 67.6323 102.777 71.3259H100.081C99.4378 68.8873 96.8831 67.0599 93.8369 67.0599C91.7869 67.0599 89.9602 67.8882 88.7876 69.1725C88.5606 68.3405 88.2485 67.5253 87.8508 66.732C89.4959 65.4946 91.6309 64.7976 93.8369 64.7976V64.7976ZM97.1372 71.3259H90.5359C91.0845 70.2317 92.3567 69.4622 93.8362 69.4622C95.3164 69.4628 96.5894 70.2317 97.1372 71.3259V71.3259ZM93.749 32.4549L95.7427 33.2669L80.4746 59.672C80.1069 59.4931 79.7305 59.3248 79.346 59.1684L93.749 32.4549ZM77.044 60.9414C77.156 60.9777 77.2673 61.0146 77.3787 61.0534C77.438 61.074 77.4973 61.0965 77.5567 61.1178C77.7346 61.1823 77.9104 61.2492 78.0847 61.3193C78.1624 61.3505 78.2393 61.3818 78.3162 61.4137C78.4063 61.4519 78.4956 61.4907 78.5842 61.5301C78.678 61.572 78.771 61.6145 78.8633 61.6577C78.9614 61.7034 79.0589 61.7503 79.1563 61.7979C79.2786 61.8585 79.4002 61.9198 79.5203 61.983C79.5877 62.0187 79.655 62.0556 79.7217 62.0919C79.825 62.1482 79.9268 62.2064 80.0278 62.2646C80.0872 62.299 80.1465 62.3321 80.2051 62.3672C82.335 63.6384 84.0488 65.3851 85.1336 67.4258C85.1409 67.4402 85.1482 67.454 85.1555 67.4684C85.7825 68.6602 86.1948 69.9514 86.3508 71.3059C86.3516 71.3127 86.3523 71.319 86.353 71.3259H83.6951C82.9971 66.3035 77.9837 62.3941 71.9185 62.3941C68.6563 62.3941 65.6109 63.5189 63.3997 65.4758C62.9719 64.8039 62.4849 64.157 61.9356 63.5439C64.6199 61.3687 68.1956 60.1394 71.9185 60.1394C73.7224 60.1394 75.4495 60.4253 77.044 60.9414V60.9414ZM71.9177 67.0599C68.8716 67.0599 66.3169 68.8879 65.6738 71.3265H65.4402C65.4395 71.3171 65.438 71.3084 65.4373 71.2996C65.4226 71.1488 65.405 70.9987 65.3853 70.8492C65.3794 70.8079 65.3743 70.766 65.3684 70.7241C65.3443 70.5595 65.3179 70.3956 65.2886 70.2323C65.282 70.196 65.2739 70.1598 65.2673 70.1235C65.2439 70.0015 65.2183 69.8801 65.1912 69.7594C65.1904 69.7537 65.189 69.7475 65.1875 69.7418C65.1839 69.7268 65.1809 69.7118 65.1773 69.6968C65.1692 69.6618 65.1619 69.6261 65.1538 69.5911C65.115 69.429 65.0733 69.2689 65.0293 69.1094C65.0176 69.0668 65.0051 69.0249 64.9927 68.9824C64.9678 68.896 64.9422 68.8103 64.9158 68.7246C64.9151 68.7227 64.9143 68.7202 64.9136 68.7183C64.8945 68.6564 64.8748 68.5951 64.855 68.5332C64.8484 68.5125 64.8418 68.4919 64.8345 68.4706C64.8067 68.388 64.7774 68.3048 64.7481 68.2229C64.7466 68.2191 64.7451 68.216 64.7444 68.2122C64.7202 68.1453 64.6953 68.079 64.6704 68.012C64.6609 67.9858 64.6521 67.9595 64.6426 67.9332C66.3484 65.96 69.0217 64.7976 71.9177 64.7976C76.4295 64.7976 80.1802 67.6329 80.8577 71.3265H78.1616C77.5193 68.8873 74.9646 67.0599 71.9177 67.0599V67.0599ZM75.2188 71.3259H68.6174C69.166 70.2317 70.4382 69.4622 71.9185 69.4622C73.398 69.4628 74.6702 70.2317 75.2188 71.3259ZM60.0957 58.4133C61.3262 58.4133 62.4475 58.957 63.0979 59.8047C62.0051 60.3571 60.9812 61.0133 60.0459 61.7653C59.1399 61.0359 58.1416 60.3884 57.0679 59.8378C57.7139 58.9707 58.8455 58.4133 60.0957 58.4133ZM54.5366 58.7686C53.7083 58.4884 52.8484 58.2619 51.9629 58.093C53.4585 55.4811 56.6094 53.7481 60.0957 53.7481C63.5755 53.7481 66.7227 55.4754 68.2212 58.0799C67.3401 58.245 66.4766 58.4677 65.6394 58.7468C64.5144 57.0876 62.4124 56.0103 60.0957 56.0103C57.763 56.0103 55.6558 57.0964 54.5366 58.7686ZM50.6372 52.0884C53.2644 50.1553 56.6233 49.0905 60.0965 49.0905C63.5725 49.0905 66.9343 50.1571 69.5623 52.094C71.6438 53.6274 73.1621 55.6262 73.959 57.8402C73.2896 57.7727 72.6084 57.737 71.9185 57.737C71.6533 57.737 71.3889 57.7433 71.1253 57.7533C69.355 53.9358 64.9751 51.3458 60.0965 51.3458C55.2149 51.3458 50.8357 53.9371 49.0654 57.7558C48.7725 57.7433 48.478 57.737 48.1814 57.737C47.5237 57.737 46.8755 57.7695 46.2368 57.8309C47.0359 55.6181 48.5557 53.6205 50.6372 52.0884ZM48.1814 60.1394C53.9214 60.1394 58.8938 63.0034 61.2427 67.1462C61.2617 67.1806 61.28 67.2156 61.2984 67.25C61.3745 67.387 61.4478 67.5247 61.5181 67.6636C61.5525 67.7336 61.5847 67.8037 61.6184 67.8738C61.669 67.9795 61.7188 68.0859 61.7656 68.1928C61.8045 68.2817 61.8403 68.3705 61.877 68.46C61.9143 68.5507 61.9509 68.6414 61.9854 68.7334C62.0235 68.8328 62.0579 68.9329 62.093 69.033C62.1216 69.1169 62.1502 69.2013 62.1773 69.2864C62.211 69.3915 62.2424 69.4972 62.2725 69.603C62.2959 69.6862 62.3186 69.77 62.3406 69.8545C62.3677 69.9608 62.3941 70.0672 62.4182 70.1748C62.438 70.2624 62.4563 70.3499 62.4739 70.4381C62.4944 70.542 62.5149 70.6465 62.5325 70.751C62.5493 70.8485 62.5625 70.9468 62.5764 71.045C62.5896 71.1382 62.6035 71.232 62.6145 71.3265H59.958C59.26 66.3035 54.2466 62.3947 48.1814 62.3947C42.1162 62.3947 37.1028 66.3035 36.4048 71.3265H33.7476C34.4573 65.0573 40.6587 60.1394 48.1814 60.1394V60.1394ZM48.1814 67.0599C45.1345 67.0599 42.5798 68.8879 41.9375 71.3265H39.2415C39.919 67.6329 43.6697 64.7976 48.1814 64.7976C52.6924 64.7976 56.4431 67.6329 57.1214 71.3265H54.4246C53.7822 68.8873 51.2276 67.0599 48.1814 67.0599V67.0599ZM51.4817 71.3259H44.8804C45.429 70.2317 46.7012 69.4622 48.1814 69.4622C49.6609 69.4622 50.9339 70.2317 51.4817 71.3259ZM111.926 79.5552C111.694 80.3578 111.433 81.1611 111.151 81.9437C110.801 82.9134 110.407 83.8781 109.981 84.8103C106.554 92.3157 100.884 98.2615 93.1279 102.483C93.1265 102.484 93.1118 102.492 93.0796 102.5C93.054 102.507 93.0298 102.511 93.0115 102.511H59.6636C58.8865 102.511 58.2566 103.048 58.2566 103.712C58.2566 104.376 58.8865 104.914 59.6636 104.914H92.0923V108.184C92.0923 108.963 91.3504 109.597 90.4385 109.597H51.5952C50.6834 109.597 49.9414 108.963 49.9414 108.184V104.914H53.1187C53.895 104.914 54.5249 104.376 54.5249 103.712C54.5249 103.048 53.895 102.511 53.1187 102.511H49.0061C48.9863 102.511 48.9636 102.508 48.9395 102.501C48.9131 102.494 48.8977 102.488 48.8919 102.484C33.7674 94.2514 29.8438 81.1473 28.874 73.7289H113.144C112.888 75.6895 112.479 77.647 111.926 79.5552V79.5552Z" fill="#C1752F"/>
</g>
<defs>
<clipPath id="clip0">
<rect width="96" height="82" fill="white" transform="translate(23 30)"/>
</clipPath>
</defs>
</svg>
